<?xml version="1.0" encoding="UTF-8" standalone="no"?>
<!DOCTYPE svg PUBLIC "-//W3C//DTD SVG 1.1//EN" "http://www.w3.org/Graphics/SVG/1.1/DTD/svg11.dtd">
<svg width="100%" height="100%" viewBox="0 0 382 362" version="1.1" style="fill-rule:evenodd;clip-rule:evenodd;stroke-linejoin:round;stroke-miterlimit:2;">
    <path d="M364.001,118.059c11.388,22.671 17.8,48.266 17.8,75.347c-0,92.854 -75.386,168.241 -168.241,168.241c-81.313,-0 -149.23,-57.81 -164.857,-134.532l-46.265,-80.134c-0.853,-1.456 -1.505,-3.043 -1.919,-4.724l-0.01,-0.04c-0.342,-1.399 -0.509,-2.818 -0.509,-4.23l0,-0.079c0.011,-3.286 0.909,-6.364 2.467,-9.007c1.448,-2.469 3.507,-4.622 6.11,-6.207c1.599,-0.978 3.364,-1.712 5.242,-2.149l0.044,-0.01c1.325,-0.306 2.668,-0.456 4.003,-0.455l0.021,-0.001l44.234,0c27.196,-56.006 84.548,-94.698 150.895,-94.913l1.088,-0c5.797,0.018 11.526,0.331 17.177,0.923l1.586,0.174l0.528,0.061c1.62,0.191 3.234,0.405 4.846,0.642c0.528,0.078 1.054,0.158 1.587,0.241l1.422,0.23l1.557,0.266l1.036,0.185c0.345,0.063 0.689,0.127 1.033,0.191l0.587,0.112c0.659,0.127 1.318,0.258 1.986,0.394l1.025,0.214c1.842,0.389 3.673,0.809 5.494,1.259l-49.897,58.94c-25.534,2.294 -48.445,13.764 -65.402,31.081l37.249,0l0.021,0.001c0.581,-0.001 1.165,0.028 1.747,0.085l-65.852,77.787c-1.207,1.425 -2.099,3.065 -2.644,4.814c-4.279,2.327 -7.041,6.764 -7.199,11.688l-1.262,39.366l-3.27,3.854c-0.891,1.573 -2.026,3.023 -3.39,4.287c-0.986,0.914 -2.062,1.704 -3.205,2.364l-0.07,0.04c-2.806,1.609 -5.869,2.371 -8.892,2.367c-3.023,0.004 -6.085,-0.759 -8.891,-2.367l-0.07,-0.04c-1.143,-0.66 -2.22,-1.45 -3.205,-2.364c-1.363,-1.263 -2.499,-2.713 -3.39,-4.287l-16.129,-27.937c8.022,29.075 25.432,54.273 48.755,72.118c0.685,6.325 3.56,10.551 6.655,13.075c3.954,3.225 10.668,5.475 20.024,2.888c17.126,7.749 36.136,12.064 56.145,12.064c75.323,0 136.476,-61.153 136.476,-136.476c0,-1.902 -0.039,-3.795 -0.116,-5.677c-0.065,-1.584 -0.157,-3.161 -0.275,-4.729c-0.299,-3.025 -0.727,-6.013 -1.277,-8.954l47.397,-55.987Zm-230.651,177.295c-9.821,3.922 -13.821,0.969 -11.381,-9.591l12.536,-69.096l66.395,53.139l-67.55,25.548Zm7.733,-86.701l66.395,53.139l168.661,-199.228c9.613,-11.356 4.953,-39.782 0.836,-43.18l-0.026,-0.091l-24.633,-16.764c-4.899,-3.278 -32.856,-5.377 -42.572,6.895l-168.661,199.229Z" style="fill:inherit;"/>
</svg>
