<?xml version="1.0" encoding="UTF-8" standalone="no"?>
<!DOCTYPE svg PUBLIC "-//W3C//DTD SVG 1.1//EN" "http://www.w3.org/Graphics/SVG/1.1/DTD/svg11.dtd">
<svg width="100%" height="100%" viewBox="0 0 382 337" version="1.1" style="fill-rule:evenodd;clip-rule:evenodd;stroke-linejoin:round;stroke-miterlimit:2;">
    <path d="M62.121,94.914c27.196,-56.007 84.548,-94.699 150.895,-94.914l1.088,0c5.797,0.019 11.526,0.331 17.177,0.923l1.586,0.174l0.528,0.061c1.62,0.191 3.234,0.405 4.846,0.642c0.528,0.078 1.054,0.158 1.587,0.242l1.422,0.229l1.557,0.266l1.036,0.185c0.345,0.063 0.689,0.127 1.033,0.192l0.587,0.112c0.659,0.126 1.318,0.257 1.986,0.394l1.025,0.213c76.123,16.091 133.327,83.721 133.327,164.607c-0,92.855 -75.386,168.241 -168.241,168.241c-81.313,0 -149.23,-57.81 -164.857,-134.531l-46.265,-80.134c-0.853,-1.457 -1.505,-3.044 -1.919,-4.725l-0.01,-0.04c-0.342,-1.398 -0.509,-2.818 -0.509,-4.23l0,-0.079c0.011,-3.285 0.909,-6.363 2.467,-9.007c1.448,-2.469 3.507,-4.622 6.11,-6.207c1.599,-0.978 3.364,-1.711 5.242,-2.149l0.044,-0.01c1.325,-0.306 2.668,-0.455 4.003,-0.455l0.021,-0l44.234,-0Zm-11.904,109.657l16.129,27.938c0.891,1.573 2.027,3.023 3.39,4.287c0.985,0.913 2.062,1.704 3.205,2.364l0.07,0.04c2.806,1.608 5.868,2.37 8.891,2.366c3.023,0.004 6.086,-0.758 8.892,-2.366l0.07,-0.04c1.143,-0.66 2.219,-1.451 3.205,-2.364c1.364,-1.264 2.499,-2.714 3.39,-4.287l93.908,-110.693c0.852,-1.457 1.505,-3.044 1.919,-4.725l0.01,-0.04c0.342,-1.399 0.509,-2.819 0.509,-4.23l-0,-0.079c-0.011,-3.285 -0.909,-6.363 -2.467,-9.007c-1.448,-2.469 -3.507,-4.622 -6.11,-6.207c-1.599,-0.978 -3.364,-1.711 -5.242,-2.149l-0.044,-0.01c-1.325,-0.306 -2.668,-0.455 -4.003,-0.455l-0.021,-0l-37.249,-0c19.031,-19.436 45.563,-31.506 74.891,-31.506c54.346,-0 99.089,41.444 104.321,94.427c0.118,1.568 0.21,3.144 0.275,4.729c0.077,1.882 0.116,3.774 0.116,5.676c0,75.324 -61.153,136.477 -136.476,136.477c-62.745,-0 -115.657,-42.434 -131.579,-100.146Z" style="fill: inherit;"/>
</svg>
