<?xml version="1.0" encoding="UTF-8" standalone="no"?>
<!DOCTYPE svg PUBLIC "-//W3C//DTD SVG 1.1//EN" "http://www.w3.org/Graphics/SVG/1.1/DTD/svg11.dtd">
<svg width="100%" height="100%" viewBox="0 0 345 391" version="1.1" style="fill-rule:evenodd;clip-rule:evenodd;stroke-linejoin:round;stroke-miterlimit:2;">
    <path d="M269.888,182.655l12.753,7.363c3.232,1.828 6.21,4.161 8.806,6.963c1.878,2.024 3.501,4.235 4.857,6.584l0.082,0.142c3.303,5.766 4.87,12.057 4.861,18.265c0.008,6.21 -1.558,12.501 -4.861,18.266l-0.082,0.142c-1.356,2.348 -2.979,4.56 -4.857,6.584c-2.595,2.801 -5.573,5.133 -8.806,6.963l-227.38,131.278c-2.992,1.751 -6.253,3.091 -9.705,3.942l-0.083,0.021c-2.872,0.702 -5.789,1.045 -8.689,1.045l-0.162,-0c-6.749,-0.022 -13.072,-1.867 -18.501,-5.068c-5.072,-2.974 -9.494,-7.203 -12.751,-12.55c-2.008,-3.285 -3.515,-6.91 -4.414,-10.768l-0.021,-0.09c-0.628,-2.722 -0.935,-5.481 -0.935,-8.224l-0,-0.042l-0,-262.997l0,-0.042c-0,-2.743 0.307,-5.501 0.935,-8.224l0.021,-0.09c0.899,-3.858 2.406,-7.483 4.414,-10.768c3.256,-5.347 7.677,-9.576 12.751,-12.55c5.43,-3.202 11.753,-5.046 18.501,-5.068l0.162,-0c2.899,-0.001 5.816,0.342 8.689,1.045l0.083,0.021c3.452,0.851 6.713,2.191 9.705,3.942l95.548,55.164l-66.456,78.5c-1.217,1.437 -2.258,2.994 -3.107,4.642c-4.669,3.736 -7.923,9.078 -9.021,15.131l-12.444,68.589c-4.036,18.421 3.072,29.185 9.851,34.713c6.624,5.401 18.427,9.975 35.3,3.313l-0.037,0.014l67.366,-25.477c5.867,-2.219 10.595,-6.505 13.404,-11.908c1.242,-0.992 2.406,-2.121 3.472,-3.38l80.751,-95.386Zm-174.073,112.699c-9.821,3.922 -13.822,0.969 -11.382,-9.591l12.537,-69.096l66.395,53.139l-67.55,25.548Zm7.732,-86.701l66.395,53.139l168.661,-199.228c9.614,-11.356 4.953,-39.782 0.837,-43.18l-0.026,-0.091l-24.634,-16.764c-4.898,-3.278 -32.856,-5.377 -42.572,6.895l-168.661,199.229Z" style="fill:white;"/>
</svg>
