<?xml version="1.0" encoding="UTF-8" standalone="no"?>
<!DOCTYPE svg PUBLIC "-//W3C//DTD SVG 1.1//EN" "http://www.w3.org/Graphics/SVG/1.1/DTD/svg11.dtd">
<svg width="100%" height="100%" viewBox="0 0 302 337" version="1.1" style="fill-rule:evenodd;clip-rule:evenodd;stroke-linejoin:round;stroke-miterlimit:2;">
    <path d="M102.753,0l0,336.481l-65.969,0l-0.162,-0c-6.749,-0.022 -13.072,-1.867 -18.501,-5.068c-5.072,-2.974 -9.494,-7.203 -12.751,-12.55c-2.008,-3.285 -3.515,-6.91 -4.414,-10.768l-0.021,-0.09c-0.628,-2.722 -0.935,-5.481 -0.935,-8.224l0,-0.042l0,-262.997l0,-0.042c-0,-2.742 0.307,-5.501 0.935,-8.224l0.021,-0.09c0.899,-3.858 2.406,-7.483 4.414,-10.768c3.256,-5.347 7.677,-9.576 12.751,-12.55c5.43,-3.202 11.753,-5.046 18.501,-5.068l0.162,-0l65.969,-0Zm95.741,-0l65.969,-0l0.162,0c6.749,0.022 13.071,1.866 18.502,5.068c5.073,2.974 9.494,7.203 12.75,12.55c2.009,3.285 3.516,6.91 4.414,10.768l0.021,0.09c0.629,2.723 0.936,5.482 0.935,8.224l0,0.042l0,262.997l0,0.042c0.001,2.743 -0.307,5.502 -0.935,8.224l-0.021,0.09c-0.898,3.858 -2.405,7.483 -4.414,10.768c-3.256,5.347 -7.678,9.576 -12.75,12.55c-5.43,3.201 -11.753,5.046 -18.502,5.068l-0.162,0l-65.969,0l-0,-336.481Z" style="fill:inherit;"/>
</svg>
