<?xml version="1.0" encoding="UTF-8" standalone="no"?>
<!DOCTYPE svg PUBLIC "-//W3C//DTD SVG 1.1//EN" "http://www.w3.org/Graphics/SVG/1.1/DTD/svg11.dtd">
<svg width="100%" height="100%" viewBox="0 0 302 337" version="1.1" style="fill-rule:evenodd;clip-rule:evenodd;stroke-linejoin:round;stroke-miterlimit:2;">
    <path d="M0,36.7c-0,-2.742 0.307,-5.501 0.935,-8.224l0.021,-0.09c0.899,-3.858 2.406,-7.483 4.414,-10.768c3.256,-5.346 7.677,-9.576 12.751,-12.55c5.43,-3.201 11.753,-5.046 18.501,-5.068l0.12,-0l0.042,0c2.899,-0 5.816,0.343 8.689,1.045l0.083,0.021c3.452,0.851 6.713,2.191 9.705,3.942l227.38,131.278c3.232,1.829 6.21,4.161 8.806,6.963c1.878,2.024 3.501,4.236 4.857,6.584l0.02,0.036l0.062,0.107c3.303,5.765 4.87,12.057 4.861,18.265c0.008,6.21 -1.558,12.5 -4.861,18.265l-0.062,0.106l-0.02,0.036c-1.356,2.349 -2.979,4.561 -4.857,6.584c-2.595,2.801 -5.573,5.134 -8.806,6.963l-227.38,131.279c-2.992,1.75 -6.253,3.09 -9.705,3.941l-0.083,0.021c-2.872,0.703 -5.789,1.045 -8.689,1.045l-0.042,0l-0.12,-0c-6.749,-0.022 -13.072,-1.867 -18.501,-5.068c-5.072,-2.974 -9.494,-7.203 -12.751,-12.55c-2.008,-3.285 -3.515,-6.91 -4.414,-10.768l-0.021,-0.09c-0.628,-2.722 -0.935,-5.481 -0.935,-8.224l0,-0.042l0,-262.997l0,-0.042Z" style="fill:inherit;"/>
</svg>
